<svg id="Layer_1" data-name="Layer 1" xmlns="http://www.w3.org/2000/svg" viewBox="0 0 254.418 236.597">
  <defs>
    <style>
      .cls-1 {
        fill: #fff;
      }

      .cls-1, .cls-2 {
        stroke: #000;
        stroke-miterlimit: 10;
      }

      .cls-2 {
        fill: none;
      }
    </style>
  </defs>
  <title>goodmorning</title>
  <path class="cls-1" d="M-192-7.5" transform="translate(-17.782 -25.501)"/>
  <g class="word">
    <path class="cls-2" d="M73.012,30.548c-9.041.28-18.315-1.316-27,1.2C36.47,34.5,28.794,42.063,24.347,50.937S18.4,69.905,18.286,79.832c-.031,2.832.067,5.761,1.272,8.324,2.35,5,8.252,7.276,13.74,7.885a38.767,38.767,0,0,0,27.81-7.887,3.19,3.19,0,0,0,1.476-2.074c.08-1.145-.992-2-1.961-2.616A75.9,75.9,0,0,0,44.078,75.6a153.988,153.988,0,0,1,24.941-3.155" transform="translate(-17.782 -25.501)"/>
    <path class="cls-2" d="M88.388,97.988a8.324,8.324,0,0,0,1.04,3.88c1.562,2.425,4.877,2.845,7.758,2.994,9.153.474,18.666.587,27.062-3.09,7.965-3.488,15.643-12.009,14.394-21.306-1.164-8.664-13.528-14.05-21.093-16.26C97.981,58.489,87.04,81.5,88.388,97.988Z" transform="translate(-17.782 -25.501)"/>
    <path class="cls-2" d="M186.865,68.018c-13.479-1.336-28.584-2.2-38.959,6.5-9.657,8.1-11.949,21.884-12.8,34.463-.133,1.976-.208,4.108.876,5.765,1.214,1.857,3.534,2.6,5.689,3.131,17.978,4.429,37.692,2.927,53.973-5.89s28.64-25.306,30.752-43.7c.492-4.287.182-9.239-3.132-12a13.21,13.21,0,0,0-6.275-2.434,53.55,53.55,0,0,0-17.106-.263" transform="translate(-17.782 -25.501)"/>
    <path class="cls-2" d="M267.533,25.5l-.1,96.938c-.017,17.3-.009,34.822,4.279,51.584-4.811-19.661-9.989-40.069-22.944-55.621-4.539-5.448-10.354-10.364-17.357-11.48a3.076,3.076,0,0,0-2.863.6,3.3,3.3,0,0,0-.543,2.131c-.353,17.875-.056,35.867,3.229,53.44,1.2,6.439,3.089,13.271,8.159,17.419s14.21,3.68,16.78-2.346" transform="translate(-17.782 -25.501)"/>
  </g>
  <g class="word" data-name="word">
    <path class="cls-2" d="M24.464,208l.117,40.983a265.788,265.788,0,0,1,9.392-28.273c1.365-3.45,2.994-7.1,6.174-9.012l11.565,26.307L57.916,228a14.157,14.157,0,0,1,2.446-3.214c3.37-3.008,9.044-1.981,12.215,1.237s4.287,7.944,4.521,12.455-.271,9.056.275,13.541" transform="translate(-17.782 -25.501)"/>
    <path class="cls-2" d="M98.587,231.363a12.964,12.964,0,0,0-2.633,4.144,57.938,57.938,0,0,0-4.5,15.321,4.562,4.562,0,0,0,.333,3.188,4.644,4.644,0,0,0,2.433,1.546,122.285,122.285,0,0,0,23.044,5.941,3.1,3.1,0,0,0,1.933-.119,3.158,3.158,0,0,0,1.257-2.05,55.75,55.75,0,0,0,2.6-12.068,18.728,18.728,0,0,0-2.8-11.815C116.051,229.35,104.7,225.51,98.587,231.363Z" transform="translate(-17.782 -25.501)"/>
  </g>
</svg>
